<svg width="831px" height="551px" viewBox="0 0 831 551" version="1.1" xmlns="http://www.w3.org/2000/svg" xmlns:xlink="http://www.w3.org/1999/xlink">
    <g id="Page-1" stroke="none" stroke-width="1" fill="none" fill-rule="evenodd">
        <g id="1920" transform="translate(-104.000000, -1523.000000)">
            <g id="C22" transform="translate(0.000000, 1080.000000)">
                <g id="Group-15" transform="translate(104.000000, 136.000000)">
                    <g id="Group-12" transform="translate(0.000000, 28.211719)">
                        <g id="Group-20" transform="translate(0.000000, 278.788281)">
                            <g id="Group-19">
                                <rect id="Rectangle" fill="#C70911" x="0" y="0" width="727" height="387"></rect>
                                <g id="Group-18" transform="translate(238.382000, 66.700000)" fill="#FFFFFF" fill-rule="nonzero">
                                    <path d="M112.157692,27.2378726 L112.157692,0 L21.175,0 L5.11923077,90.0945018 L34.9038462,90.0945018 C38.1615385,85.5936567 41.6519231,82.2956237 45.375,80.2004027 C49.0980769,78.1051818 53.9070513,77.0575713 59.8019231,77.0575713 C64.300641,77.0575713 68.2564103,77.8335791 71.6692308,79.3855946 C75.0820513,80.9376101 78.0294872,83.1104319 80.5115385,85.9040598 C82.9935897,88.6976878 84.8551282,91.9569204 86.0961538,95.6817577 C87.3371795,99.406595 87.9576923,103.364235 87.9576923,107.554677 C87.9576923,111.589917 87.2983974,115.508756 85.9798077,119.311194 C84.6612179,123.113632 82.7996795,126.450466 80.3951923,129.321694 C77.9907051,132.192923 75.0432692,134.520946 71.5528846,136.305764 C68.0625,138.090582 64.1455128,138.982991 59.8019231,138.982991 C52.3557692,138.982991 46.2282051,136.771369 41.4192308,132.348125 C36.6102564,127.92488 33.8179487,121.988421 33.0423077,114.538746 L0,114.538746 C0.155128205,123.074832 1.90032051,130.563307 5.23557692,137.004171 C8.57083333,143.445036 13.0307692,148.83829 18.6153846,153.183933 C24.2,157.529577 30.5990385,160.750009 37.8125,162.84523 C45.0259615,164.940451 52.5884615,165.988061 60.5,165.988061 C68.7217949,166.143263 76.4782051,164.785249 83.7692308,161.914021 C91.0602564,159.042792 97.4592949,154.968751 102.966346,149.691898 C108.473397,144.415045 112.855769,138.168183 116.113462,130.951311 C119.371154,123.734438 121,115.93556 121,107.554677 C121,99.9498004 119.875321,92.7717286 117.625962,86.020461 C115.376603,79.2691934 112.11891,73.4103348 107.852885,68.4438851 C103.586859,63.4774354 98.3512821,59.5197957 92.1461538,56.5709662 C85.9410256,53.6221367 78.8051282,52.147722 70.7384615,52.147722 C64.2230769,52.147722 58.4057692,53.1177317 53.2865385,55.0577511 C48.1673077,56.9977705 43.3583333,60.2182027 38.8596154,64.7190478 L38.3942308,64.2534431 L44.9096154,27.2378726 L112.157692,27.2378726 Z" id="Path"></path>
                                    <path d="M197.916031,41.4485714 L197.916031,98.0328571 L155.076336,98.0328571 L197.217557,41.4485714 L197.916031,41.4485714 Z M197.916031,125.277143 L197.916031,163 L229.347328,163 L229.347328,125.277143 L251,125.277143 L251,98.0328571 L229.347328,98.0328571 L229.347328,0 L199.778626,0 L129,95.0057143 L129,125.277143 L197.916031,125.277143 Z" id="Shape"></path>
                                    <g id="AÑOS" transform="translate(4.000000, 182.000000)">
                                        <path d="M35.9832196,58.8046162 L15.9544646,58.8046162 L12.1467165,70.2377885 L0,70.2377885 L20.6379948,14.7487923 L31.2235345,14.7487923 L51.9757617,70.2377885 L39.8290452,70.2377885 L35.9832196,58.8046162 Z M19.0387406,49.5437466 L32.8989437,49.5437466 L25.9307646,28.7734836 L19.0387406,49.5437466 Z" id="Shape"></path>
                                        <path d="M110.816132,70.2377885 L99.3928874,70.2377885 L77.1556384,33.7278583 L77.1556384,70.2377885 L65.7323941,70.2377885 L65.7323941,14.7487923 L77.1556384,14.7487923 L99.4309649,51.3349436 L99.4309649,14.7487923 L110.816132,14.7487923 L110.816132,70.2377885 Z M102.743706,0.419216318 C102.743706,3.29021292 101.906001,5.69753086 100.230592,7.64117016 C98.5551828,9.58480945 96.5116913,10.5566291 94.1001175,10.5566291 C93.135488,10.5566291 92.2787447,10.4486491 91.5298875,10.2326892 C90.7810304,10.0167293 89.7465922,9.55305064 88.4265728,8.84165325 C87.1065535,8.13025586 86.1546165,7.69198425 85.5707617,7.52683843 C84.986907,7.36169261 84.3522824,7.2791197 83.6668877,7.2791197 C82.7784131,7.2791197 82.0232098,7.59670782 81.4012776,8.23188406 C80.7793454,8.8670603 80.4683793,9.76901056 80.4683793,10.9377348 L74.0713625,10.5566291 C74.0713625,7.73644659 74.9027208,5.33548041 76.5654375,3.35373054 C78.2281541,1.37198068 80.2652994,0.381105743 82.6768732,0.381105743 C83.4384228,0.381105743 84.1555487,0.476382179 84.8282509,0.666935051 C85.500953,0.857487923 86.5988537,1.32116658 88.121953,2.05797101 C89.6450522,2.79477545 90.6985292,3.23939882 91.2823839,3.39184112 C91.8662386,3.54428341 92.4754783,3.62050456 93.110103,3.62050456 C93.9985776,3.62050456 94.7664734,3.30926821 95.4137906,2.68679549 C96.0611078,2.06432278 96.3847664,1.16872428 96.3847664,0 L102.743706,0.419216318 Z" id="Shape"></path>
                                        <path d="M174.911194,43.7509393 C174.911194,49.213455 173.946565,54.0026838 172.017306,58.1186259 C170.088047,62.2345679 167.327429,65.4104491 163.735453,67.6462695 C160.143478,69.8820898 156.024763,71 151.379311,71 C146.784628,71 142.684953,69.8947933 139.080284,67.68438 C135.475616,65.4739667 132.683268,62.3171408 130.703239,58.2139023 C128.72321,54.1106638 127.720503,49.3913043 127.695118,44.0558239 L127.695118,41.3118626 C127.695118,35.8493469 128.678786,31.0410628 130.646122,26.8870102 C132.613459,22.7329576 135.393115,19.5443729 138.985091,17.321256 C142.577066,15.0981392 146.683088,13.9865808 151.303156,13.9865808 C155.923224,13.9865808 160.029245,15.0981392 163.621221,17.321256 C167.213197,19.5443729 169.992853,22.7329576 171.960189,26.8870102 C173.927526,31.0410628 174.911194,35.8366434 174.911194,41.273752 L174.911194,43.7509393 Z M163.33564,41.2356414 C163.33564,35.4174271 162.294855,30.9966005 160.213286,27.9731616 C158.131717,24.9497227 155.161674,23.4380032 151.303156,23.4380032 C147.470023,23.4380032 144.512672,24.9306674 142.431103,27.9159957 C140.349534,30.901324 139.296057,35.2776883 139.270672,41.0450886 L139.270672,43.7509393 C139.270672,49.4167114 140.311456,53.812131 142.393025,56.9371981 C144.474594,60.0622652 147.470023,61.6247987 151.379311,61.6247987 C155.212444,61.6247987 158.157102,60.119431 160.213286,57.1086957 C162.26947,54.0979603 163.310255,49.7088925 163.33564,43.9414922 L163.33564,41.2356414 Z" id="Shape"></path>
                                        <path d="M220.538678,55.6795491 C220.538678,53.5199499 219.777129,51.8621399 218.254029,50.7061192 C216.73093,49.5500984 213.989351,48.33056 210.029293,47.047504 C206.069235,45.764448 202.934189,44.5004473 200.624156,43.2555019 C194.328679,39.8509572 191.18094,35.2649848 191.18094,29.4975845 C191.18094,26.4995527 192.024991,23.8254607 193.713093,21.4753086 C195.401194,19.1251566 197.825461,17.2894972 200.985892,15.9683306 C204.146323,14.6471641 207.693875,13.9865808 211.628548,13.9865808 C215.588606,13.9865808 219.117119,14.7043299 222.214087,16.1398282 C225.311056,17.5753265 227.716283,19.6015387 229.42977,22.2184648 C231.143257,24.8353909 232,27.8080157 232,31.1363392 L220.576756,31.1363392 C220.576756,28.5956343 219.777129,26.6202362 218.177874,25.2101449 C216.57862,23.8000537 214.332049,23.0950081 211.43816,23.0950081 C208.645812,23.0950081 206.475395,23.685722 204.926911,24.8671498 C203.378427,26.0485776 202.604185,27.6047593 202.604185,29.5356951 C202.604185,31.3395956 203.511698,32.8513151 205.326724,34.0708535 C207.141751,35.2903918 209.813521,36.4337091 213.342034,37.5008052 C219.840591,39.457148 224.574891,41.8835212 227.544935,44.7799249 C230.514978,47.6763285 232,51.2841295 232,55.603328 C232,60.4052603 230.184973,64.1718554 226.55492,66.9031133 C222.924867,69.6343711 218.038257,71 211.89509,71 C207.630412,71 203.746509,70.2187332 200.243381,68.6561997 C196.740252,67.0936661 194.068483,64.9531222 192.228071,62.2345679 C190.387659,59.5160136 189.467454,56.3655395 189.467454,52.7831455 L200.928775,52.7831455 C200.928775,58.9062444 204.584214,61.9677939 211.89509,61.9677939 C214.611284,61.9677939 216.73093,61.4151906 218.254029,60.3099839 C219.777129,59.2047772 220.538678,57.661299 220.538678,55.6795491 Z" id="Path"></path>
                                    </g>
                                </g>
                            </g>
                            <g id="Group-16" transform="translate(667.000000, 387.000000)">
                                <rect id="Rectangle" fill="#8E0405" x="60" y="0" width="104" height="104"></rect>
                                <rect id="Rectangle-Copy" fill="#B5E2E3" x="0" y="104" width="60" height="60"></rect>
                            </g>
                        </g>
                    </g>
                </g>
            </g>
        </g>
    </g>
</svg>