
<svg width="482px" height="90px" viewBox="0 0 482 90" version="1.1" xmlns="http://www.w3.org/2000/svg" xmlns:xlink="http://www.w3.org/1999/xlink">
    <g id="Page-1" stroke="none" stroke-width="1" fill="none" fill-rule="evenodd">
        <g id="2560" transform="translate(-92.000000, -59.000000)" fill="#C70911">
            <g id="ankai-vectores-real-horizontal" transform="translate(92.000000, 59.000000)">
                <path d="M23.9585009,68.1686398 L25.3048094,67.9439478 L26.4267332,67.7192559 L27.0998874,67.4945639 L27.7730417,67.2698719 L28.2218112,67.04518 L28.6705807,66.820488 L29.1193502,66.5957961 L29.5681197,66.3711041 L29.7925044,66.1464122 L30.2412739,65.9217202 L30.4656587,65.6970283 L30.6900434,65.4723363 L30.9144282,65.2476444 L31.1388129,65.0229524 L31.3631977,64.7982604 L31.5875824,64.5735685 L31.8119672,64.1241846 L32.0363519,63.8994926 L32.2607367,63.6748007 L32.4851214,63.4501087 L32.7095062,63.0007248 L32.9338909,62.7760329 L33.1582757,62.3266489 L33.3826604,61.877265 L33.6070452,61.4278811 L33.83143,60.9784972 L34.0558147,60.5291133 L34.2801995,60.0797294 L34.5045842,59.6303455 L34.728969,59.1809616 L34.9533537,58.7315777 L35.1777385,58.2821938 L35.4021232,57.8328099 L35.626508,57.158734 L35.8508927,56.7093501 L36.0752775,56.2599662 L36.2996622,55.5858903 L36.524047,55.1365064 L36.7484317,54.6871225 L36.9728165,54.2377386 L37.1972012,53.7883547 L37.421586,53.1142788 L37.6459707,52.6648949 L37.8703555,52.215511 L38.0947402,51.7661271 L38.319125,51.3167432 L38.5435097,50.8673593 L38.7678945,50.1932834 L38.9922792,49.7438995 L39.216664,49.0698236 L39.4410487,48.6204397 L39.6654335,48.1710558 L39.8898182,47.7216719 L40.114203,47.272288 L40.3385877,46.8229041 L40.5629725,46.1488282 L40.7873572,45.6994443 L41.011742,45.2500604 L41.2361267,44.8006765 L41.4605115,44.3512926 L41.6848963,43.6772167 L41.909281,43.2278328 L42.1336658,42.5537569 L42.3580505,42.104373 L42.5824353,41.6549891 L42.80682,41.2056052 L43.0312048,40.7562213 L43.2555895,40.3068374 L43.4799743,39.6327615 L43.704359,39.1833776 L43.9287438,38.7339937 L44.1531285,38.2846098 L44.3775133,37.8352259 L44.601898,37.16115 L44.8262828,36.7117661 L45.0506675,36.0376903 L45.2750523,35.5883064 L45.499437,35.1389224 L45.7238218,34.6895385 L45.9482065,34.4648466 L46.1725913,34.4648466 C46.1725913,34.4648466 46.396976,68.3208504 46.396976,68.3208504 L69.9067074,68.3208504 C69.9067074,68.3208504 71.6945472,68.0961585 71.6945472,68.0961585 L72.5920862,67.8714665 L73.2652405,67.6467746 L73.9383947,67.4220826 L74.3871642,67.1973907 L74.8359337,66.9726987 L75.2847032,66.7480068 L75.509088,66.5233148 L75.9578575,66.2986229 L76.1822422,66.0739309 L76.406627,65.8492389 L76.8553965,65.624547 L77.0797812,65.399855 L77.304166,64.9504711 L77.5285507,64.7257792 L77.7529355,64.5010872 L77.9773203,64.2763953 L78.201705,63.8270114 L78.4260898,63.3776274 L78.6504745,63.1529355 L78.8748593,62.7035516 L79.099244,62.2541677 L79.3236288,61.8047838 L79.5480135,61.1307079 L79.7723983,60.681324 L79.996783,60.0072481 L80.2211678,59.1084803 L80.4455525,58.4344044 L80.6699373,57.5356366 L80.894322,56.6368688 L81.1187068,55.738101 L81.3430915,54.8393332 L81.5674763,54.1652573 L81.791861,53.2664895 L82.0162458,52.5924136 L82.2406305,51.6936458 L82.4650153,51.2442619 L82.9137848,51.2442619 C82.9137848,51.2442619 83.1381695,51.4689539 83.1381695,51.4689539 L83.3625543,51.9183378 L83.586939,52.3677217 L83.8113238,52.5924136 L84.0357085,53.0417975 L84.2600933,53.4911814 L84.484478,53.7158734 L84.7088628,54.1652573 L84.9332475,54.3899493 L85.1576323,54.8393332 L85.3820171,55.0640251 L85.6064018,55.513409 L85.8307866,55.738101 L86.0551713,56.1874849 L86.2795561,56.4121769 L86.5039408,56.8615608 L86.7283256,57.3109447 L86.9527103,57.7603286 L87.1770951,57.9850205 L87.4014798,58.2097125 L87.6258646,58.6590964 L87.8502493,59.1084803 L88.0746341,59.3331723 L88.2990188,59.7825562 L88.5234036,60.0072481 L88.7477883,60.456632 L88.9721731,60.681324 L89.1965578,61.1307079 L89.4209426,61.5800918 L89.6453273,61.8047838 L89.8697121,62.2541677 L90.0940968,62.4788596 L90.3184816,62.9282435 L90.5428663,63.1529355 L90.7672511,63.3776274 L90.9916358,63.8270114 L91.2160206,64.0517033 L91.4404053,64.2763953 L91.6647901,64.5010872 L91.8891748,64.7257792 L92.1135596,65.1751631 L92.3379443,65.399855 L92.5623291,65.624547 L92.7867138,65.8492389 L93.0110986,66.0739309 L93.4598681,66.2986229 L93.6842529,66.5233148 L94.1330224,66.7480068 L94.3574071,66.9726987 L94.5817919,67.1973907 L95.0305614,67.4220826 L95.2549461,67.6467746 L95.7037156,67.8714665 L96.1524851,68.0961585 L96.8256394,68.3208504 L97.4987936,68.5455424 L98.1719479,68.7702344 L99.2938716,68.9949263 L105.786553,68.9949263 C105.786553,68.9949263 107.798778,68.7702344 107.798778,68.7702344 L109.369471,68.5455424 L110.932926,68.3208504 L111.157311,68.3208504 C111.157311,68.3208504 110.932926,68.5455424 110.932926,68.5455424 L110.708541,68.7702344 L110.484156,68.9949263 L110.259772,69.2196183 L109.811002,69.4443102 L109.586617,69.6690022 L109.362233,69.8936941 L109.137848,70.1183861 L108.913463,70.343078 L108.689078,70.56777 L108.464694,70.7924619 L108.015924,71.0171539 L107.791539,71.2418459 L107.567155,71.4665378 L107.118385,71.6912298 L106.894,71.9159217 L106.445231,72.1406137 L106.220846,72.3653056 L105.996461,72.5899976 L105.547692,72.8146895 L105.323307,73.0393815 L105.098922,73.2640734 L104.650153,73.4887654 L104.425768,73.7134574 L103.976999,73.9381493 L103.752614,74.1628413 L103.303844,74.3875332 L102.855075,74.6122252 L102.406305,74.8369171 L102.181921,75.0616091 L101.733151,75.286301 L101.284382,75.510993 L100.835612,75.7356849 L100.611227,75.9603769 L100.162458,76.1850689 L99.7136883,76.4097608 L99.2649188,76.6344528 L98.8161493,76.8591447 L98.3673798,77.0838367 L97.9186103,77.3085286 L97.4698408,77.5332206 L96.7966865,77.7579125 L96.347917,77.9826045 L95.8991475,78.2072964 L95.450378,78.4319884 L95.0016085,78.6566804 L94.3284542,78.8813723 L93.8796847,79.1060643 L93.2065305,79.3307562 L92.757761,79.5554482 L92.0846067,79.7801401 L91.1870677,80.0048321 L90.5139135,80.229524 L89.8407592,80.454216 L89.167605,80.6789079 L88.4944507,80.9035999 L87.8212964,81.1282919 L86.9237574,81.3529838 L86.2506032,81.5776758 L85.3530642,81.8023677 L84.4555252,82.0270597 L83.5579862,82.2517516 L82.4360624,82.4764436 L80.8726074,82.7011355 L79.5262989,82.9258275 L78.1872286,83.1505194 L76.3921506,83.3752114 L74.379926,83.5999034 L71.2457777,83.8245953 L63.6311726,83.8245953 C63.6311726,83.8245953 60.4970243,83.5999034 60.4970243,83.5999034 L58.4847997,83.3752114 L56.6969599,83.1505194 L55.3506514,82.9258275 L54.0043429,82.7011355 L52.4336497,82.4764436 L51.5361107,82.2517516 L50.4141869,82.0270597 L49.5166479,81.8023677 L48.8434936,81.5776758 L47.9459546,81.3529838 L47.0484156,81.1282919 L46.3752614,80.9035999 L45.7021071,80.6789079 L45.0289529,80.454216 L44.3557986,80.229524 L43.6826444,80.0048321 L42.7851054,79.7801401 L42.1119511,79.5554482 L41.6631816,79.3307562 L40.9900273,79.1060643 L40.5412578,78.8813723 L40.0924883,78.6566804 L39.4193341,78.4319884 L38.9705646,78.2072964 L38.5217951,77.9826045 L38.0730256,77.7579125 L37.6242561,77.5332206 L36.9511018,77.3085286 L36.5023323,77.0838367 L36.0535628,76.8591447 L35.6047933,76.6344528 L35.1560238,76.4097608 L34.7072543,76.1850689 L34.2584848,75.9603769 L33.8097153,75.7356849 L33.5853305,75.510993 L33.136561,75.286301 L32.6877915,75.0616091 L32.4634068,74.8369171 L32.0146373,74.6122252 L31.5658678,74.3875332 L31.1170983,74.1628413 L30.8927135,73.9381493 L30.443944,73.7134574 L30.2195593,73.4887654 L29.7707898,73.2640734 L29.546405,73.0393815 L29.3220203,72.8146895 L28.8732508,72.5899976 L28.648866,72.3653056 L28.2000965,72.1406137 L27.9757118,71.9159217 L27.751327,71.6912298 L27.3025575,71.4665378 L27.0781728,71.2418459 L26.853788,71.0171539 L26.4050185,70.7924619 L26.1806337,70.56777 L25.956249,70.343078 L25.7318642,70.1183861 L25.2830947,69.8936941 L25.05871,69.6690022 L24.8343252,69.4443102 L24.6099405,69.2196183 L24.3855557,68.9949263 L24.161171,68.7702344 L23.9367862,68.5455424 L23.7124015,68.3208504 L23.263632,68.0961585 L23.9367862,68.0961585 L23.9585009,68.1686398 Z M95.6096188,43.2785697 L95.8340035,43.0538777 L96.282773,42.8291858 L96.7315425,42.6044938 L97.180312,42.3798019 L97.6290816,42.1551099 L98.0778511,41.930418 L98.5266206,41.705726 L98.9753901,41.4810341 L99.4241596,41.2563421 L99.8729291,41.0316502 L100.321699,40.8069582 L100.546083,40.5822662 L100.994853,40.3575743 L101.443622,40.1328823 L101.668007,39.9081904 L102.116777,39.6834984 L102.565546,39.4588065 L102.789931,39.2341145 L103.2387,39.0094226 L103.463085,38.7847306 L103.911855,38.5600387 L104.136239,38.3353467 L104.585009,38.1106547 L104.809394,37.8859628 L105.258163,37.6612708 L105.482548,37.4365789 L105.706933,37.2118869 L106.155702,36.987195 L106.380087,36.762503 L106.604472,36.5378111 L106.828856,36.3131191 L107.277626,36.0884272 L107.502011,35.8637352 L107.95078,35.6390432 L108.175165,35.4143513 L108.39955,35.1896593 L108.623934,34.9649674 L108.848319,34.7402754 L109.072704,34.5155835 L109.297089,34.2908915 L109.745858,34.0661996 L109.970243,33.8415076 L110.194628,33.6168157 L110.419012,33.3921237 L110.643397,33.1674317 L110.867782,32.9427398 L111.092167,32.7180478 L111.540936,32.4933559 L111.765321,32.043972 L111.989706,31.81928 L112.21409,31.5945881 L112.438475,31.3698961 L112.66286,31.1452042 L112.887245,30.9205122 L113.111629,30.6958202 L113.336014,30.4711283 L113.560399,30.2464363 L113.784784,30.0217444 L114.009168,29.7970524 L114.233553,29.5723605 L114.457938,29.3476685 L114.682323,29.1229766 L114.906707,28.6735927 L115.131092,28.4489007 L115.355477,28.2242087 L115.579862,27.9995168 L115.804246,27.7748248 L116.028631,27.5501329 L116.477401,27.5501329 C116.477401,27.5501329 116.701785,27.9995168 116.701785,27.9995168 L116.92617,28.2242087 L117.150555,28.6735927 L117.37494,29.1229766 L117.599324,29.3476685 L117.823709,29.7970524 L118.048094,30.2464363 L118.272479,30.4711283 L118.496863,30.9205122 L118.721248,31.3698961 L118.945633,31.81928 L119.170018,32.043972 L119.394402,32.7180478 L119.618787,33.1674317 L119.843172,33.6168157 L120.067557,34.2908915 L120.291941,34.9649674 L120.516326,35.4143513 L120.740711,36.0884272 L120.965096,36.762503 L121.18948,37.6612708 L121.413865,38.3353467 L121.63825,39.4588065 L121.862635,40.5822662 L122.087019,42.1551099 L122.087019,47.5404687 C122.087019,47.5404687 121.862635,49.3307562 121.862635,49.3307562 L121.63825,50.454216 L121.413865,51.3529838 L121.18948,52.2517516 L120.965096,53.1505194 L120.740711,53.8245953 L120.516326,54.4986712 L120.291941,54.9480551 L120.067557,55.6221309 L119.843172,56.2962068 L119.618787,56.7455907 L119.394402,57.1949746 L119.170018,57.6443585 L118.945633,58.0937424 L118.721248,58.5431264 L118.496863,58.9925103 L118.272479,59.4418942 L118.048094,59.6665861 L117.823709,60.11597 L117.599324,60.565354 L117.37494,60.7900459 L117.150555,61.2394298 L117.150555,61.6888137 L116.477401,61.6888137 C116.477401,61.6888137 110.87502,61.6888137 110.87502,61.6888137 L109.977481,61.4641218 L109.304327,61.2394298 L108.631173,61.0147379 L108.182403,60.7900459 L107.733634,60.565354 L107.284864,60.340662 L107.060479,60.11597 L106.836095,59.8912781 L106.387325,59.6665861 L106.16294,59.4418942 L105.938556,59.2172022 L105.714171,58.9925103 L105.489786,58.5431264 L105.265401,58.3184344 L105.041017,58.0937424 L104.816632,57.8690505 L104.592247,57.6443585 L104.367862,57.1949746 L104.143478,56.9702827 L103.919093,56.5208988 L103.694708,56.2962068 L103.470323,55.8468229 L103.245939,55.6221309 L103.021554,55.172747 L102.797169,54.9480551 L102.572784,54.4986712 L102.3484,54.2739792 L102.124015,53.8245953 L101.89963,53.5999034 L101.675245,53.1505194 L101.450861,52.9258275 L101.226476,52.7011355 L101.002091,52.2517516 L100.777706,52.0270597 L100.553322,51.5776758 L100.328937,51.1282919 L100.104552,50.9035999 L99.8801673,50.454216 L99.6557825,50.229524 L99.4313978,49.7801401 L99.207013,49.5554482 L98.9826283,49.1060643 L98.7582435,48.8813723 L98.5338588,48.4319884 L98.309474,48.2072964 L98.0850893,47.7579125 L97.8607045,47.5332206 L97.6363198,47.0838367 L97.411935,46.8591447 L97.1875503,46.4097608 L96.9631655,46.1850689 L96.7387808,45.7356849 L96.514396,45.510993 L96.2900113,45.0616091 L96.0656265,44.8369171 L95.8412418,44.3875332 L95.616857,44.1628413 L95.616857,43.2640734 L95.6096188,43.2785697 Z M28.2145729,23.3172264 L27.9901882,23.5419183 L27.7658034,24.2159942 L27.5414187,24.8900701 L27.3170339,25.5641459 L27.0926492,26.0135298 L26.8682644,26.6876057 L26.8682644,27.3616816 C26.8682644,27.3616816 27.5414187,27.5863735 27.5414187,27.5863735 L28.4389577,27.8110655 L29.112112,28.0357574 L30.009651,28.2604494 L30.4584205,28.4851413 L30.6828052,28.7098333 L30.90719,28.9345252 L31.1315747,29.1592172 L31.3559595,29.6086011 L31.3559595,30.9567528 C31.3559595,30.9567528 31.1315747,31.6308287 31.1315747,31.6308287 L30.90719,32.0802126 L30.6828052,32.5295965 L30.4584205,33.2036724 L30.2340357,33.6530563 L30.009651,34.1024402 L29.7852662,34.5518241 L29.5608815,35.001208 L29.3364967,35.6752839 L29.112112,36.1246678 L28.8877272,36.5740517 L28.6633424,37.0234356 L28.4389577,37.4728195 L28.2145729,37.9222034 L27.9901882,38.3715873 L27.7658034,38.8209712 L27.5414187,39.4950471 L27.3170339,39.944431 L27.0926492,40.3938149 L26.8682644,40.8431988 L26.6438797,41.2925827 L26.4194949,41.7419667 L26.1951102,42.1913506 L25.9707254,42.6407345 L25.7463407,43.3148103 L25.5219559,43.7641942 L25.2975712,44.2135782 L25.0731864,44.6629621 L24.8488017,45.112346 L24.6244169,45.7864218 L24.4000322,46.2358058 L24.1756474,46.6851897 L23.9512627,47.1345736 L23.7268779,47.5839575 L23.5024932,48.0333414 L23.2781084,48.4827253 L23.0537237,48.9321092 L22.8293389,49.6061851 L22.6049542,50.055569 L22.3805694,50.5049529 L22.1561847,50.9543368 L21.9317999,51.4037207 L21.7074152,52.0777966 L21.4830304,52.5271805 L21.2586456,52.9765644 L21.0342609,53.4259483 L20.8098761,53.8753322 L20.5854914,54.3247161 L20.3611066,54.7741 L20.1367219,55.2234839 L19.9123371,55.6728678 L19.6879524,56.3469437 L19.4635676,56.7963276 L19.2391829,57.2457115 L19.0147981,57.9197874 L18.7904134,58.1444793 L18.5660286,58.5938633 L18.3416439,59.0432472 L18.1172591,59.4926311 L17.8928744,59.942015 L17.6684896,60.1667069 L16.9953354,60.1667069 C16.9953354,60.1667069 16.7709506,59.942015 16.7709506,59.942015 L16.5465659,59.4926311 L16.3221811,59.0432472 L16.0977964,58.5938633 L15.8734116,58.1444793 L15.6490269,57.6950954 L15.4246421,57.2457115 L15.2002574,56.7963276 L14.9758726,56.1222518 L14.7514879,55.6728678 L14.5271031,55.2234839 L14.3027184,54.5494081 L14.0783336,53.8753322 L13.8539488,53.2012563 L13.6295641,52.3024885 L13.4051793,51.1790288 L13.1807946,50.055569 L12.9564098,48.7074173 L12.7320251,46.2430539 L12.7320251,43.7786905 C12.7320251,43.7786905 12.9564098,41.3143271 12.9564098,41.3143271 L13.1807946,39.9661754 L13.4051793,38.8427156 L13.6295641,37.9439478 L13.8539488,36.820488 L14.0783336,36.1464122 L14.3027184,35.4723363 L14.5271031,34.7982604 L14.7514879,34.3488765 L14.9758726,33.6748007 L15.2002574,33.2254168 L15.4246421,32.7760329 L15.6490269,32.3266489 L15.8734116,31.877265 L16.0977964,31.4278811 L16.3221811,30.9784972 L16.5465659,30.5291133 L16.7709506,30.0797294 L16.9953354,29.8550374 L17.2197201,29.4056535 L17.4441049,28.9562696 L17.6684896,28.7315777 L17.8928744,28.2821938 L18.1172591,28.0575018 L18.3416439,27.8328099 L18.5660286,27.3834259 L18.7904134,27.158734 L19.0147981,26.7093501 L19.2391829,26.4846581 L19.4635676,26.0352742 L19.6879524,25.8105823 L19.9123371,25.5858903 L20.1367219,25.3611984 L20.3611066,25.1365064 L20.5854914,24.9118144 L20.8098761,24.4624305 L21.0342609,24.2377386 L21.2586456,24.0130466 L21.4830304,23.7883547 L21.7074152,23.5636627 L21.9317999,23.3389708 L22.1561847,23.1142788 L22.3805694,22.6648949 L22.8293389,22.4402029 L23.0537237,22.215511 L23.2781084,21.990819 L23.5024932,21.7661271 L23.7268779,21.5414351 L23.9512627,21.3167432 L24.1756474,21.0920512 L24.4000322,20.8673593 L24.6244169,20.6426673 L24.8488017,20.4179754 L25.0731864,20.1932834 L25.2975712,19.9685914 L25.7463407,19.7438995 L25.9707254,19.5192075 L26.1951102,19.2945156 L26.6438797,19.0698236 L26.8682644,18.8451317 L27.0926492,18.6204397 L27.3170339,18.3957478 L27.5414187,18.1710558 L27.9901882,17.9463639 L28.2145729,17.7216719 L28.4389577,17.4969799 L28.8877272,17.272288 L29.112112,17.047596 L29.5608815,16.8229041 L30.009651,16.5982121 L30.2340357,16.3735202 L30.4584205,16.1488282 L30.90719,15.9241363 L31.1315747,15.6994443 L31.5803442,15.4747524 L32.0291137,15.2500604 L32.2534985,15.0253684 L32.702268,14.8006765 L33.1510375,14.5759845 L33.599807,14.3512926 L34.0485765,14.1266006 L34.2729612,13.9019087 L34.7217307,13.6772167 L35.1705002,13.4525248 L35.6192697,13.2278328 L36.0680392,13.0031409 L36.5168088,12.7784489 L36.9655783,12.5537569 L37.4143478,12.329065 L37.8631173,12.104373 L38.3118868,11.8796811 L38.7606563,11.6549891 L39.4338105,11.4302972 L40.1069648,11.2056052 L40.5557343,10.9809133 L41.2288885,10.7562213 L41.677658,10.5315294 L42.3508123,10.3068374 L42.7995818,10.0821454 L43.472736,9.85745349 L44.1458903,9.63276154 L44.5946598,9.40806958 L45.4921988,9.18337763 L46.1653531,8.95868567 L47.0628921,8.73399372 L47.9604311,8.50930176 L48.6335853,8.28460981 L49.5311243,8.05991785 L50.4286633,7.8352259 L51.5505871,7.61053395 L52.4481261,7.38584199 L53.5700499,7.16115004 L54.9163584,6.93645808 L56.0382821,6.71176613 L57.6089754,6.48707417 L59.3968152,6.26238222 L63.2041177,6.03769026 L71.7090236,6.03769026 C71.7090236,6.03769026 75.5163262,6.26238222 75.5163262,6.26238222 L77.304166,6.48707417 L78.867621,6.71176613 L80.2139295,6.93645808 L81.3358533,7.16115004 L82.4577771,7.38584199 L83.5797008,7.61053395 L84.4772398,7.8352259 L85.3747788,8.05991785 L86.2723178,8.28460981 L86.9454721,8.50930176 L87.8430111,8.73399372 L88.9649349,8.95868567 L89.6380891,9.18337763 L90.0868586,9.40806958 L90.7600129,9.63276154 L91.4331671,9.85745349 L92.1063214,10.0821454 L92.7794756,10.3068374 L93.2282451,10.5315294 L93.9013994,10.7562213 L94.3501689,10.9809133 L95.0233231,11.2056052 L95.4720926,11.4302972 L96.1452469,11.6549891 L96.5940164,11.8796811 L97.0427859,12.104373 L97.4915554,12.329065 L97.9403249,12.5537569 L98.3890944,12.7784489 L98.8378639,13.0031409 L99.2866334,13.2278328 L99.7354029,13.4525248 L100.184172,13.6772167 L100.632942,13.9019087 L101.081711,14.1266006 L101.530481,14.3512926 L101.97925,14.5759845 L102.203635,14.8006765 L102.652405,15.0253684 L103.101174,15.2500604 L103.325559,15.4747524 L103.549944,15.6994443 L103.998713,15.9241363 L104.447483,16.1488282 L104.671867,16.3735202 L105.120637,16.5982121 L105.345022,16.8229041 L105.793791,17.047596 L106.018176,17.272288 L106.466945,17.4969799 L106.69133,17.7216719 L106.915715,17.9463639 L107.364484,18.1710558 L107.588869,18.3957478 L107.813254,18.6204397 L108.037639,18.8451317 L108.486408,19.0698236 L108.710793,19.2945156 L108.935178,19.5192075 L109.159562,19.7438995 L109.608332,19.9685914 L109.832717,20.1932834 L110.057101,20.4179754 L110.281486,20.6426673 L110.505871,20.8673593 L110.730256,21.0920512 L110.954641,21.3167432 L111.40341,21.5414351 L111.627795,21.7661271 L111.85218,22.215511 L112.300949,22.4402029 L112.525334,22.6648949 L112.749719,22.8895869 L112.974103,23.3462189 L100.213125,23.1142788 L97.976516,23.1142788 C97.976516,23.1142788 97.7521313,23.3389708 97.7521313,23.3389708 L97.5277465,23.7883547 L97.3033618,24.2377386 L97.078977,24.6871225 L96.8545922,25.1365064 L96.6302075,25.5858903 L96.4058227,26.0352742 L96.181438,26.4846581 L95.9570532,26.934042 L95.7326685,27.3834259 L95.5082837,27.8328099 L95.283899,28.2821938 L95.0595142,28.7315777 L94.8351295,29.1809616 L94.6107447,29.6303455 L94.38636,29.8550374 L94.1619752,30.3044214 L93.9375905,30.7538053 L93.7132057,30.9784972 L93.488821,31.4278811 L93.2644362,31.6525731 L93.0400515,32.101957 L92.8156667,32.5513409 L92.591282,32.7760329 L92.3668972,33.2254168 L92.1425125,33.4501087 L91.9181277,33.8994926 L91.693743,34.1241846 L91.4693582,34.5735685 L91.2449735,34.7982604 L91.0205887,35.2476444 L90.796204,35.4723363 L90.5718192,35.9217202 L90.3474345,36.1464122 L90.1230497,36.3711041 L89.898665,36.820488 L89.6742802,37.04518 L89.4498954,37.4945639 L89.2255107,37.7192559 L89.0011259,38.1686398 L88.7767412,38.3933317 L88.5523564,38.8427156 L88.3279717,39.0674076 L88.1035869,39.2920995 L87.8792022,39.5167915 L87.6548174,39.7414835 L87.4304327,40.1908674 L87.2060479,40.4155593 L86.9816632,40.6402513 L86.7572784,41.0896352 L86.5328937,41.3143271 L86.3085089,41.763711 L86.0841242,41.988403 L85.6353547,42.213095 L85.4109699,42.4377869 L84.7378157,42.4377869 L84.7378157,41.5390191 C84.7378157,41.5390191 84.9622004,40.8649432 84.9622004,40.8649432 L85.1865852,39.9661754 L85.4109699,39.0674076 L85.6353547,38.1686398 L85.8597394,37.2698719 L86.0841242,36.3711041 L86.3085089,35.6970283 L86.5328937,34.7982604 L86.7572784,33.6748007 L86.9816632,32.7760329 L87.2060479,31.877265 L87.4304327,30.9784972 L87.6548174,30.3044214 L87.8792022,29.4056535 L88.1035869,28.5068857 L88.3279717,27.6081179 L88.5523564,26.934042 L88.7767412,26.0352742 L89.0011259,25.1365064 L89.2255107,24.2377386 L89.2255107,23.1142788 C89.2255107,23.1142788 68.1767734,23.1142788 68.1767734,23.1142788 L67.9523886,23.3389708 L67.7280039,23.7883547 L67.5036191,24.4624305 L67.2792344,25.1365064 L67.0548496,25.8105823 L66.8304649,26.7093501 L66.8304649,27.3834259 C66.8304649,27.3834259 67.2792344,27.6081179 67.2792344,27.6081179 L68.6255429,27.8328099 L69.5230819,28.0575018 L70.4206209,28.2821938 L70.8693904,28.5068857 L71.0937751,28.7315777 L71.3181599,28.9562696 L71.5425446,29.4056535 L71.5425446,30.7538053 C71.5425446,30.7538053 71.3181599,31.6525731 71.3181599,31.6525731 L71.0937751,32.5513409 L70.8693904,33.4501087 L70.6450056,34.1241846 L70.4206209,35.0229524 L70.1962361,35.9217202 L69.9718514,36.820488 L69.7474666,37.7192559 L69.5230819,38.8427156 L69.2986971,39.5167915 L69.0743124,40.4155593 L68.8499276,41.3143271 L68.6255429,42.213095 L68.4011581,42.8871708 L68.1767734,43.7859386 L67.9523886,44.6847065 L67.7280039,45.3587823 L67.5036191,46.2575501 L67.2792344,47.156318 L67.0548496,48.0550858 L66.8304649,48.9538536 L66.6060801,50.0773134 L66.3816954,50.7513892 L66.1573106,51.650157 L65.9329258,52.5489249 L65.7085411,53.4476927 L65.4841563,54.1217685 L65.2597716,55.0205364 L65.0353868,55.9193042 L64.8110021,56.818072 L64.5866173,57.4921479 L64.3622326,58.3909157 L64.1378478,59.2896835 L63.9134631,60.1884513 L63.6890783,60.8625272 L63.4646936,61.3119111 L63.2403088,61.761295 L63.0159241,62.2106789 L62.7915393,62.6600628 L62.5671546,62.8847548 L62.3427698,63.3341387 L62.1183851,63.5588306 L61.8940003,63.7835226 L61.4452308,64.0082145 L61.4452308,63.5588306 C61.4452308,63.5588306 61.4452308,58.3981638 61.4452308,58.3981638 L61.4452308,23.3172264 C61.4452308,23.3172264 33.0062731,23.0925344 33.0062731,23.0925344 L28.5258163,23.0925344 C28.5258163,23.0925344 28.3014316,23.3172264 28.3014316,23.3172264 L28.2145729,23.3172264 Z M57.9926009,0.224691955 L55.3072221,0.449383909 L53.5121441,0.674075864 L52.1658356,0.898767818 L50.8195271,1.12345977 L49.4804568,1.34815173 L48.3585331,1.57284368 L47.2366093,1.79753564 L46.3390703,2.02222759 L45.2171465,2.24691955 L44.5439923,2.4716115 L43.6464533,2.69630345 L42.7489143,2.92099541 L41.6269905,3.14568736 L40.7294515,3.37037932 L40.0562972,3.59507127 L39.383143,3.81976323 L38.7099887,4.04445518 L38.0368345,4.26914714 L37.3636802,4.49383909 L36.690526,4.71853105 L36.0173717,4.943223 L35.3442175,5.16791496 L34.895448,5.39260691 L34.2222937,5.61729886 L33.5491395,5.84199082 L32.8759852,6.06668277 L32.4272157,6.29137473 L31.7540614,6.51606668 L31.3052919,6.74075864 L30.8565224,6.96545059 L30.4077529,7.19014255 L29.7345987,7.4148345 L29.2858292,7.63952646 L28.8370597,7.86421841 L28.3882902,8.08891036 L27.9395207,8.31360232 L27.4907512,8.53829427 L26.8175969,8.76298623 L26.3688274,8.98767818 L25.9200579,9.21237014 L25.6956732,9.43706209 L25.2469037,9.66175405 L24.7981341,9.886446 L24.3493646,10.111138 L24.1249799,10.3358299 L23.6762104,10.5605219 L23.2274409,10.7852138 L22.7786714,11.0099058 L22.5542866,11.2345977 L22.1055171,11.4592897 L21.6567476,11.6839816 L21.2079781,11.9086736 L20.9835934,12.1333655 L20.5348239,12.3580575 L20.3104391,12.5827495 L19.8616696,12.8074414 L19.6372849,13.0321334 L19.1885154,13.2568253 L18.9641306,13.4815173 L18.7397459,13.7062092 L18.2909764,13.9309012 L18.0665916,14.1555931 L17.6178221,14.3802851 L17.3934373,14.604977 L16.9446678,14.829669 L16.7202831,15.054361 L16.4958983,15.2790529 L16.2715136,15.5037449 L15.8227441,15.7284368 L15.5983593,15.9531288 L15.3739746,16.1778207 L15.1495898,16.4025127 L14.7008203,16.6272046 L14.4764356,16.8518966 L14.2520508,17.0765885 L14.0276661,17.3012805 L13.5788966,17.5259725 L13.5788966,17.9753564 L13.1301271,17.9753564 C13.1301271,17.9753564 12.9057423,18.2000483 12.9057423,18.2000483 L12.6813576,18.4247403 L12.4569728,18.6494322 L12.2325881,18.8741242 L12.0082033,19.0988161 L11.7838186,19.3235081 L11.5594338,19.5482 L11.3350491,19.772892 L11.1106643,19.997584 L10.8862796,20.2222759 L10.6618948,20.4469679 L10.4375101,20.6716598 L10.2131253,20.8963518 L9.98874055,21.1210437 L9.7643558,21.3457357 L9.53997105,21.5704276 L9.3155863,21.7951196 L9.09120154,22.0198115 L8.86681679,22.4691955 L8.64243204,22.6938874 L8.41804729,22.9185794 L8.19366254,23.1432713 L7.96927779,23.3679633 L7.74489304,23.8173472 L7.52050828,24.0420391 L7.29612353,24.2667311 L7.07173878,24.491423 L6.84735403,24.940807 L6.62296928,25.1654989 L6.39858453,25.3901909 L6.17419977,25.6148828 L5.94981502,26.0642667 L5.72543027,26.2889587 L5.50104552,26.7383426 L5.27666077,26.9630345 L5.05227602,27.4124185 L4.82789127,27.8618024 L4.60350651,28.0864943 L4.37912176,28.5358782 L4.15473701,28.9852621 L3.93035226,29.2099541 L3.70596751,29.659338 L3.48158276,30.1087219 L3.25719801,30.5581058 L3.03281325,31.0074897 L2.8084285,31.4568736 L2.58404375,31.9062576 L2.359659,32.3556415 L2.13527425,33.2544093 L1.9108895,33.7037932 L1.68650475,34.1531771 L1.46211999,34.827253 L1.23773524,35.5013288 L1.01335049,36.1754047 L0.788965739,37.0741725 L0.564580988,37.7482484 L0.340196236,38.8717081 L0.115811485,39.9951679 L0,41.4810341 L0,48.4319884 C0,48.4319884 0.224384751,50.0048321 0.224384751,50.0048321 L0.448769503,51.1282919 L0.673154254,52.0270597 L0.897539006,52.9258275 L1.12192376,53.8245953 L1.34630851,54.4986712 L1.57069326,55.172747 L1.79507801,55.6221309 L2.01946276,56.2962068 L2.24384751,56.7455907 L2.46823227,57.4196666 L2.69261702,57.8690505 L2.91700177,58.5431264 L3.14138652,58.9925103 L3.36577127,59.4418942 L3.59015602,59.8912781 L3.81454078,60.11597 L4.03892553,60.565354 L4.26331028,61.0147379 L4.48769503,61.2394298 L4.71207978,61.6888137 L4.93646453,62.1381976 L5.16084928,62.5875815 L5.38523404,62.8122735 L5.60961879,63.2616574 L5.83400354,63.4863494 L6.05838829,63.9357333 L6.28277304,64.1604252 L6.50715779,64.3851172 L6.73154254,64.8345011 L6.9559273,65.059193 L7.18031205,65.283885 L7.4046968,65.7332689 L7.62908155,65.9579609 L7.8534663,66.1826528 L8.07785105,66.4073448 L8.30223581,66.8567287 L8.52662056,67.0814206 L8.75100531,67.3061126 L8.97539006,67.5308045 L9.19977481,67.7554965 L9.42415956,68.2048804 L9.64854431,68.4295724 L9.87292907,68.6542643 L10.0973138,68.8789563 L10.3216986,69.1036482 L10.5460833,69.3283402 L10.7704681,69.5530321 L10.9948528,69.7777241 L11.2192376,70.002416 L11.4436223,70.227108 L11.6680071,70.4518 L11.8923918,70.6764919 L12.1167766,70.9011839 L12.3411613,71.1258758 L12.5655461,71.3505678 L12.7899308,71.5752597 L13.0143156,71.7999517 L13.4630851,72.0246436 L13.6874698,72.2493356 L13.9118546,72.4740275 L14.1362393,72.6987195 L14.3606241,72.9234115 L14.5850088,73.1481034 L15.0337783,73.3727954 L15.2581631,73.5974873 L15.4825479,73.8221793 L15.7069326,74.0468712 L16.1557021,74.2715632 L16.3800869,74.4962551 L16.6044716,74.7209471 L17.0532411,74.945639 L17.2776259,75.170331 L17.5020106,75.395023 L17.9507801,75.6197149 L18.1751649,75.8444069 L18.3995496,76.0690988 L18.8483191,76.2937908 L19.0727039,76.5184827 L19.5214734,76.7431747 L19.7458581,76.9678666 L19.9702429,77.1925586 L20.4190124,77.4172505 L20.8677819,77.6419425 L21.3165514,77.8666345 L21.5409361,78.0913264 L21.9897056,78.3160184 L22.2140904,78.5407103 L22.6628599,78.7654023 L22.8872447,78.9900942 L23.3360142,79.2147862 L23.7847837,79.4394781 L24.2335532,79.6641701 L24.4579379,79.888862 L24.9067074,80.113554 L25.5798617,80.338246 L25.8042464,80.5629379 L26.2530159,80.7876299 L26.7017854,81.0123218 L27.1505549,81.2370138 L27.5993244,81.4617057 L28.0480939,81.6863977 L28.4968634,81.9110896 L28.9456329,82.1357816 L29.3944024,82.3604735 L30.0675567,82.5851655 L30.5163262,82.8098575 L31.1894805,83.0345494 L31.63825,83.2592414 L32.0870195,83.4839333 L32.7601737,83.7086253 L33.2089432,83.9333172 L33.8820975,84.1580092 L34.330867,84.3827011 L35.0040212,84.6073931 L35.4527907,84.832085 L36.125945,85.056777 L36.7990992,85.281469 L37.4722535,85.5061609 L38.1454078,85.7308529 L39.0429468,85.9555448 L39.716101,86.1802368 L40.3892553,86.4049287 L41.2867943,86.6296207 L41.9599485,86.8543126 L42.8574875,87.0790046 L43.7550265,87.3036965 L44.6525655,87.5283885 L45.5501046,87.7530805 L46.4476436,87.9777724 L47.5695673,88.2024644 L48.6914911,88.4271563 L50.2621843,88.6518483 L51.3841081,88.8765402 L52.9475631,89.1012322 L54.2938716,89.3259241 L56.0817114,89.5506161 L58.093936,89.775308 L61.0036995,90 L74.213447,90 C74.213447,90 76.8988258,89.775308 76.8988258,89.775308 L78.9110503,89.5506161 L80.7061284,89.3259241 L82.2695834,89.1012322 L83.6158919,88.8765402 L84.9622004,88.6518483 L86.5328937,88.4271563 L87.6548174,88.2024644 L88.5523564,87.9777724 L89.6742802,87.7530805 L90.5718192,87.5283885 L91.4693582,87.3036965 L92.1425125,87.0790046 L93.0400515,86.8543126 L93.9375905,86.6296207 L94.6107447,86.4049287 L95.283899,86.1802368 L95.9570532,85.9555448 L96.8545922,85.7308529 L97.5277465,85.5061609 L98.2009008,85.281469 L98.874055,85.056777 L99.5472093,84.832085 L100.220364,84.6073931 L100.669133,84.3827011 L101.342287,84.1580092 L101.791057,83.9333172 L102.464211,83.7086253 L102.912981,83.4839333 L103.36175,83.2592414 L103.81052,83.0345494 L104.708059,82.8098575 L105.156828,82.5851655 L105.605598,82.3604735 L106.054367,82.1357816 L106.503137,81.9110896 L106.951906,81.6863977 L107.400676,81.4617057 L107.849445,81.2370138 L108.298215,81.0123218 L108.746984,80.7876299 L109.195754,80.5629379 L109.420138,80.338246 L110.093293,80.113554 L110.542062,79.888862 L110.990832,79.6641701 L111.215216,79.4394781 L111.663986,79.2147862 L112.112755,78.9900942 L112.33714,78.7654023 L112.78591,78.5407103 L113.234679,78.3160184 L113.459064,78.0913264 L113.907833,77.8666345 L114.132218,77.6419425 L114.580988,77.4172505 L115.029757,77.1925586 L115.254142,76.9678666 L115.702911,76.7431747 L115.927296,76.5184827 L116.376066,76.2937908 L116.60045,76.0690988 L116.824835,75.8444069 L117.273605,75.6197149 L117.497989,75.395023 L117.722374,75.170331 L117.946759,74.945639 L118.395528,74.7209471 L118.844298,74.4962551 L119.068683,74.2715632 L119.293067,74.0468712 L119.517452,73.8221793 L119.966222,73.5974873 L120.190606,73.3727954 L120.414991,73.1481034 L120.639376,72.9234115 L120.863761,72.6987195 L121.088145,72.4740275 L121.31253,72.2493356 L121.7613,72.0246436 L121.985684,71.7999517 L122.210069,71.5752597 L122.434454,71.3505678 L122.658839,71.1258758 L122.883223,70.9011839 L123.107608,70.6764919 L123.331993,70.4518 L123.556378,70.227108 L123.780762,70.002416 L124.005147,69.7777241 L124.229532,69.5530321 L124.453917,69.3283402 L124.678301,69.1036482 L124.902686,68.8789563 L125.127071,68.6542643 L125.351456,68.4295724 L125.57584,68.2048804 L125.800225,67.9801885 L126.02461,67.5308045 L126.248995,67.3061126 L126.473379,67.0814206 L126.697764,66.8567287 L126.922149,66.6320367 L127.146534,66.4073448 L127.370918,65.9579609 L127.595303,65.7332689 L127.819688,65.508577 L128.044073,65.283885 L128.268457,64.8345011 L128.492842,64.6098091 L128.717227,64.1604252 L128.941612,63.9357333 L129.165996,63.4863494 L129.390381,63.2616574 L129.614766,63.0369655 L129.839151,62.5875815 L130.063535,62.1381976 L130.28792,61.9135057 L130.512305,61.4641218 L130.73669,61.0147379 L130.961074,60.7900459 L131.185459,60.340662 L131.409844,59.8912781 L131.634229,59.4418942 L131.858613,58.9925103 L132.082998,58.5431264 L132.307383,58.0937424 L132.531768,57.6443585 L132.756152,56.9702827 L132.980537,56.5208988 L133.204922,55.8468229 L133.429307,55.397439 L133.653691,54.7233631 L133.878076,54.0492873 L134.102461,53.1505194 L134.326846,52.4764436 L134.55123,51.1282919 L134.775615,50.0048321 L135,48.4319884 L135,41.4810341 C135,41.4810341 134.775615,39.9081904 134.775615,39.9081904 L134.55123,38.7847306 L134.326846,37.4365789 L134.102461,36.5378111 L133.878076,35.8637352 L133.653691,35.1896593 L133.429307,34.5155835 L133.204922,33.8415076 L132.980537,33.3921237 L132.756152,32.7180478 L132.531768,32.2686639 L132.307383,31.81928 L132.082998,31.3698961 L131.858613,30.9205122 L131.634229,30.4711283 L131.409844,29.7970524 L131.185459,29.5723605 L130.961074,29.1229766 L130.73669,28.6735927 L130.512305,28.2242087 L130.28792,27.9995168 L130.063535,27.5501329 L129.839151,27.3254409 L129.614766,26.876057 L129.390381,26.6513651 L129.165996,26.2019812 L128.941612,25.9772892 L128.717227,25.5279053 L128.492842,25.3032133 L128.268457,24.8538294 L128.044073,24.6291375 L127.819688,24.4044455 L127.595303,23.9550616 L127.370918,23.7303697 L127.146534,23.5056777 L126.922149,23.2809857 L126.697764,23.0562938 L126.473379,22.6069099 L126.248995,22.3822179 L126.02461,22.157526 L125.800225,21.932834 L125.57584,21.7081421 L125.351456,21.4834501 L125.127071,21.2587582 L124.902686,20.8093742 L124.678301,20.5846823 L124.453917,20.3599903 L124.229532,20.1352984 L124.005147,19.9106064 L123.780762,19.6859145 L123.331993,19.4612225 L123.107608,19.2365306 L122.883223,19.0118386 L122.658839,18.7871467 L122.434454,18.5624547 L122.210069,18.3377627 L121.985684,18.1130708 L121.7613,17.8883788 L121.536915,17.6636869 L121.31253,17.4389949 L121.088145,17.214303 L120.639376,16.989611 L120.414991,16.7649191 L120.190606,16.5402271 L119.966222,16.3155352 L119.741837,16.0908432 L119.293067,15.8661512 L119.068683,15.6414593 L118.844298,15.4167673 L118.619913,15.1920754 L118.171144,14.9673834 L117.946759,14.7426915 L117.722374,14.5179995 L117.273605,14.2933076 L117.04922,14.0686156 L116.60045,13.8439237 L116.376066,13.6192317 L115.927296,13.3945397 L115.702911,13.1698478 L115.254142,12.9451558 L115.029757,12.7204639 L114.580988,12.4957719 L114.356603,12.27108 L114.132218,12.046388 L113.683449,11.8216961 L113.234679,11.5970041 L113.010294,11.3723122 L112.33714,11.1476202 L112.112755,10.9229282 L111.663986,10.6982363 L111.439601,10.4735443 L110.990832,10.2488524 L110.542062,10.0241604 L110.093293,9.79946847 L109.644523,9.57477652 L109.420138,9.35008456 L108.971369,9.12539261 L108.522599,8.90070065 L108.07383,8.6760087 L107.400676,8.45131674 L106.951906,8.22662479 L106.503137,8.00193283 L106.054367,7.77724088 L105.605598,7.55254892 L105.156828,7.32785697 L104.708059,7.10316502 L104.259289,6.87847306 L103.586135,6.65378111 L103.137365,6.42908915 L102.688596,6.2043972 L102.015442,5.97970524 L101.342287,5.75501329 L100.669133,5.53032133 L100.220364,5.30562938 L99.5472093,5.08093742 L98.874055,4.85624547 L98.2009008,4.63155352 L97.7521313,4.40686156 L97.078977,4.18216961 L96.4058227,3.95747765 L95.7326685,3.7327857 L94.8351295,3.50809374 L94.1619752,3.28340179 L93.2644362,3.05870983 L92.1425125,2.83401788 L91.4693582,2.60932592 L90.5718192,2.38463397 L89.6742802,2.15994201 L88.7767412,1.93525006 L87.6548174,1.71055811 L86.5328937,1.48586615 L85.4109699,1.2611742 L84.2890462,1.03648224 L82.9427377,0.811790288 L81.3792826,0.587098333 L79.5842046,0.362406378 L76.8988258,0.137714424 L74.1193502,0 L60.9096027,0 C60.9096027,0 57.9998392,0.224691955 57.9998392,0.224691955 L57.9926009,0.224691955 Z" id="Shape"></path>
                <g id="Group" transform="translate(172.000000, 28.000000)">
                    <polygon id="Path" points="72.4164536 35.7419355 92.1181492 35.7419355 92.2490092 13.7204301 92.3725991 13.8422939 92.5034591 13.9713262 92.6270491 14.09319 92.7579091 14.2222222 92.881499 14.344086 93.143219 14.4731183 93.2668089 14.7240143 93.3976689 14.8530466 93.5212589 14.9749104 93.6521189 15.1039427 93.9065688 15.2329749 94.0374288 15.483871 94.1610187 15.6057348 94.2918787 15.734767 94.5463287 15.8566308 94.6771886 15.9856631 94.8080486 16.1075269 94.9316386 16.2365591 95.0624985 16.3584229 95.1860885 16.4874552 95.3169485 16.6164875 95.4478084 16.7383513 95.5713984 16.8673835 95.7022584 16.9892473 95.8258484 17.1182796 95.9567083 17.2401434 96.2111583 17.2401434 96.2111583 17.4910394 96.3420182 17.6200717 96.4656082 17.7491039 96.5964682 17.8709677 96.7200582 18 96.9817781 18.1218638 97.1053681 18.2508961 97.236228 18.3727599 97.359818 18.5017921 97.490678 18.6308244 97.621538 18.7526882 97.7451279 18.8817204 97.8759879 19.0035842 97.9995779 19.1326165 98.1304378 19.2544803 98.2612978 19.3835125 98.3848878 19.5053763 98.5157478 19.6344086 98.6466077 19.7562724 98.7701977 19.8853047 98.9010577 20.0143369 99.0246476 20.1362007 99.1555076 20.265233 99.2790976 20.3870968 99.5408175 20.516129 99.6644075 20.6379928 99.7952675 20.7670251 99.9188574 20.8888889 100.049717 21.0179211 100.180577 21.1469534 100.304167 21.2688172 100.435027 21.3978495 100.558617 21.5197133 100.689477 21.6487455 100.820337 21.7706093 100.943927 21.8996416 101.074787 22.0286738 101.198377 22.1505376 101.329237 22.2795699 101.460097 22.4014337 101.583687 22.5304659 101.714547 22.6523297 101.968997 22.781362 102.092587 23.0322581 102.354307 23.1612903 102.477897 23.2831541 102.608757 23.4121864 102.739617 23.5340502 102.863207 23.7849462 103.117657 23.9139785 103.248517 24.0358423 103.379377 24.1648746 103.502967 24.2867384 103.633827 24.4157706 103.757417 24.5448029 103.888277 24.6666667 104.019137 24.7956989 104.273586 24.7956989 104.273586 25.046595 104.397176 25.1684588 104.658896 25.297491 104.782486 25.4265233 104.913346 25.5483871 105.036936 25.7992832 105.167796 25.9283154 105.422246 26.0501792 105.553106 26.1792115 105.676696 26.3010753 105.807556 26.5591398 106.062006 26.6810036 106.192866 26.8100358 106.316456 26.9318996 106.447316 27.0609319 106.570906 27.1827957 106.701766 27.311828 106.832626 27.4336918 107.087076 27.562724 107.217936 27.8136201 107.341526 27.9426523 107.472386 28.0645161 107.726836 28.1935484 107.857696 28.3154122 107.981286 28.5734767 108.112146 28.6953405 108.235736 28.8243728 108.490186 28.9462366 108.621045 29.0752688 108.751905 29.1971326 108.875495 29.3261649 109.006355 29.4480287 109.129945 29.5770609 109.391665 29.5770609 109.391665 29.827957 109.515255 29.9569892 109.646115 30.078853 109.769705 30.2078853 109.900565 30.3297491 110.155015 30.3297491 110.155015 30.5806452 110.285875 30.7096774 110.409465 30.8387097 110.540325 30.9605735 110.794775 31.0896057 110.925635 31.3405018 111.180085 31.4623656 111.310945 31.5913978 111.434535 31.7132616 111.565395 31.8422939 111.696255 31.9713262 111.819845 32.09319 111.950705 32.2222222 112.074295 32.344086 112.205155 32.4731183 112.328745 32.5949821 112.459605 32.7240143 112.590465 32.8458781 112.714055 32.9749104 112.844915 33.1039427 113.099364 33.1039427 113.099364 33.3548387 113.230224 33.4767025 113.353814 33.6057348 113.608264 33.7275986 113.739124 33.8566308 113.869984 33.9856631 113.993574 34.1075269 114.124434 34.2365591 114.248024 34.3584229 114.378884 34.4874552 114.509744 34.609319 114.633334 34.7383513 114.764194 34.8602151 114.887784 34.9892473 115.018644 35.1111111 115.149504 35.2401434 115.273094 35.3691756 115.403954 35.4910394 115.527544 35.6200717 115.658404 35.7419355 136.385169 35.7419355 136.385169 0 116.807064 0 116.683474 0.129032258 116.552614 17.4910394 116.429024 17.3691756 116.298164 17.2401434 116.043714 17.1182796 115.912854 16.9892473 115.789264 16.8673835 115.658404 16.7383513 115.527544 16.6164875 115.403954 16.4874552 115.273094 16.3584229 115.149504 16.2365591 115.018644 16.1075269 114.887784 15.9856631 114.764194 15.8566308 114.633334 15.734767 114.509744 15.6057348 114.378884 15.483871 114.248024 15.3548387 114.124434 15.2329749 113.993574 15.1039427 113.869984 14.9749104 113.739124 14.8530466 113.608264 14.7240143 113.353814 14.6021505 113.230224 14.344086 112.968504 14.2222222 112.844915 14.09319 112.714055 13.9713262 112.590465 13.8422939 112.459605 13.7204301 112.328745 13.5913978 112.205155 13.4695341 112.074295 13.3405018 111.950705 13.218638 111.819845 13.0896057 111.696255 12.9605735 111.565395 12.8387097 111.434535 12.7096774 111.310945 12.5878136 111.056495 12.4587814 110.925635 12.2078853 110.794775 12.0860215 110.540325 11.9569892 110.409465 11.827957 110.285875 11.5770609 110.155015 11.4551971 109.900565 11.3261649 109.769705 11.2043011 109.646115 11.0752688 109.515255 10.9462366 109.391665 10.8243728 109.260805 10.6953405 109.129945 10.5734767 109.006355 10.4444444 108.875495 10.3225806 108.751905 10.1935484 108.621045 10.0716846 108.490186 9.94265233 108.235736 9.82078853 108.112146 9.69175627 107.981286 9.44086022 107.857696 9.31182796 107.595976 9.18996416 107.472386 9.0609319 107.341526 8.9390681 107.217936 8.68100358 107.087076 8.55913978 106.832626 8.43010753 106.701766 8.30824373 106.570906 8.17921147 106.447316 8.05734767 106.316456 7.92831541 106.192866 7.80645161 105.931146 7.67741935 105.807556 7.4265233 105.676696 7.29749104 105.553106 7.17562724 105.422246 7.04659498 105.167796 6.92473118 105.036936 6.67383513 104.913346 6.54480287 104.782486 6.42293907 104.528036 6.29390681 104.397176 6.16487455 104.273586 6.04301075 104.142726 5.91397849 104.019137 5.7921147 103.888277 5.66308244 103.633827 5.66308244 103.633827 5.41218638 103.502967 5.28315412 103.379377 5.16129032 103.248517 5.03225806 103.117657 4.91039427 102.863207 4.91039427 102.863207 4.65949821 102.739617 4.53046595 102.608757 4.40860215 102.477897 4.27956989 102.223447 4.15053763 102.092587 3.89964158 101.838137 3.77777778 101.714547 3.64874552 101.583687 3.52688172 101.460097 3.39784946 101.329237 3.27598566 101.198377 3.14695341 101.074787 3.01792115 100.943927 2.89605735 100.820337 2.76702509 100.689477 2.64516129 100.558617 2.51612903 100.435027 2.39426523 100.304167 2.26523297 100.180577 2.13620072 100.049717 2.01433692 99.9188574 1.88530466 99.7952675 1.76344086 99.5408175 1.6344086 99.4099576 1.5125448 99.2790976 1.38351254 99.1555076 1.26164875 99.0246476 1.13261649 98.9010577 1.00358423 98.7701977 0.88172043 98.6466077 0.752688172 98.5157478 0.630824373 98.3848878 0.501792115 98.2612978 0.379928315 98.1304378 0.250896057 97.9995779 0.129032258 97.8759879 0 72.4164536 0"></polygon>
                    <path d="M20.7267653,10.8243728 C20.7340353,10.2939068 21.0757252,10.0573477 21.8754251,10.0716846 L41.8315706,10.0716846 C42.7185104,10.0286738 43.1547103,10.3297491 43.1110903,11.0752688 L43.2419502,21.8996416 L20.5959053,21.8996416 C20.5959053,21.8996416 20.7267653,10.8243728 20.7267653,10.8243728 Z M0,8.68100358 L0,35.4910394 C0,35.4910394 0.13085997,35.6129032 0.13085997,35.6129032 L20.4723154,35.6129032 C20.4723154,35.6129032 20.6031753,35.6129032 20.6031753,35.6129032 L20.6031753,28.8172043 L43.2492202,28.8172043 L43.2492202,35.6129032 C43.2492202,35.6129032 63.4670857,35.6129032 63.4670857,35.6129032 L63.5979456,35.4910394 L63.5979456,8.6953405 C63.1690157,3.41935484 59.5049366,0.286738351 53.7470979,0 L9.86538777,0 C3.27876926,0 0.479819892,3.08243728 0.0145399967,8.68817204 L0,8.68100358 Z" id="Shape"></path>
                    <polygon id="Path" points="145.341807 35.7419355 164.912643 35.7419355 164.919913 21.3835125 165.683263 21.5197133 166.962782 21.6487455 167.987852 21.7706093 168.242302 21.8996416 168.627612 22.0286738 168.882062 22.1505376 169.012922 22.2795699 169.390962 22.4014337 169.645412 22.5304659 169.776272 22.6523297 169.907132 22.781362 170.161582 22.9032258 170.285172 23.0322581 170.546891 23.1612903 170.670481 23.2831541 170.801341 23.4121864 171.055791 23.5340502 171.186651 23.6630824 171.310241 23.7849462 171.564691 23.9139785 171.695551 24.0358423 171.826411 24.1648746 171.950001 24.2867384 172.080861 24.4157706 172.335311 24.5448029 172.589761 24.6666667 172.720621 24.7956989 172.844211 24.9175627 172.975071 25.046595 173.229521 25.1684588 173.360381 25.297491 173.614831 25.4265233 173.745691 25.5483871 173.869281 25.6774194 174.000141 25.7992832 174.123731 25.9283154 174.385451 26.0501792 174.639901 26.1792115 174.763491 26.3010753 174.894351 26.4301075 175.02521 26.5591398 175.1488 26.6810036 175.53411 26.6810036 175.53411 26.9318996 175.6577 27.0609319 175.91942 27.1827957 176.04301 27.311828 176.29746 27.4336918 176.42832 27.562724 176.55918 27.6917563 176.81363 27.8136201 176.94449 27.9426523 177.06808 28.0645161 177.32253 28.1935484 177.45339 28.3154122 177.58425 28.4444444 177.70784 28.5734767 177.8387 28.6953405 178.09315 28.8243728 178.3476 28.9462366 178.47846 29.0752688 178.60205 29.1971326 178.73291 29.3261649 178.8565 29.4480287 179.11822 29.5770609 179.24181 29.6989247 179.496259 29.827957 179.627119 29.9569892 179.757979 30.078853 179.881569 30.2078853 180.136019 30.3297491 180.266879 30.4587814 180.521329 30.5806452 180.652189 30.7096774 180.775779 30.8387097 180.906639 30.9605735 181.161089 31.0896057 181.422809 31.0896057 181.422809 31.3405018 181.546399 31.4623656 181.800849 31.5913978 181.931709 31.7132616 182.186159 31.8422939 182.317019 31.9713262 182.440609 32.09319 182.695059 32.2222222 182.825919 32.344086 182.956779 32.4731183 183.211229 32.5949821 183.334819 32.7240143 183.465679 32.8458781 183.596539 32.9749104 183.720129 33.1039427 183.974578 33.2258065 184.236298 33.3548387 184.359888 33.4767025 184.490748 33.6057348 184.614338 33.7275986 184.745198 33.8566308 184.999648 33.9856631 185.130508 34.1075269 185.384958 34.2365591 185.515818 34.3584229 185.639408 34.4874552 185.770268 34.609319 186.024718 34.7383513 186.155578 34.8602151 186.410028 34.9892473 186.533618 35.1111111 186.664478 35.2401434 186.795338 35.3691756 187.049788 35.4910394 187.304238 35.4910394 187.304238 35.7419355 187.435098 35.8709677 187.689548 35.9928315 213.403532 35.9928315 213.403532 35.7419355 213.272672 35.6200717 213.149082 35.4910394 213.018222 35.3691756 212.894632 35.2401434 212.509322 35.1111111 212.378462 34.9892473 212.254872 34.8602151 212.124012 34.7383513 211.869562 34.609319 211.738702 34.4874552 211.484252 34.3584229 211.353392 34.2365591 211.229802 34.1075269 210.975352 33.9856631 210.844492 33.8566308 210.720902 33.7275986 210.459182 33.6057348 210.204733 33.4767025 210.081143 33.3548387 209.950283 33.2258065 209.819423 33.1039427 209.564973 32.9749104 209.434113 32.8458781 209.310523 32.7240143 209.056073 32.5949821 208.925213 32.4731183 208.670763 32.344086 208.539903 32.2222222 208.285453 32.09319 208.154593 31.9713262 208.031003 31.8422939 207.900143 31.7132616 207.776553 31.5913978 207.391243 31.4623656 207.260383 31.3405018 207.136793 31.2114695 207.005933 31.0896057 206.882343 30.9605735 206.620623 30.8387097 206.366173 30.7096774 206.242583 30.5806452 206.111723 30.4587814 205.857274 30.3297491 205.726414 30.2078853 205.471964 30.078853 205.341104 29.9569892 205.217514 29.827957 204.955794 29.6989247 204.832204 29.5770609 204.701344 29.4480287 204.446894 29.3261649 204.316034 29.1971326 204.192444 29.0752688 203.937994 28.9462366 203.807134 28.8243728 203.683544 28.6953405 203.421824 28.5734767 203.298234 28.4444444 203.043784 28.3154122 202.912924 28.1935484 202.782064 28.0645161 202.527614 27.9426523 202.273164 27.8136201 202.142304 27.6917563 202.018714 27.562724 201.887854 27.4336918 201.764264 27.311828 201.378955 27.1827957 201.248095 27.0609319 201.117235 26.9318996 200.993645 26.8100358 200.739195 26.6810036 200.608335 26.5591398 200.353885 26.4301075 200.223025 26.3010753 200.099435 26.1792115 199.844985 26.1792115 199.844985 25.9283154 199.583265 25.7992832 199.328815 25.6774194 199.074365 25.6774194 199.074365 25.4265233 198.943505 25.297491 198.689055 25.1684588 198.434605 25.046595 198.303745 24.9175627 198.180155 24.7956989 197.925705 24.6666667 197.794845 24.5448029 197.671255 24.4157706 197.409535 24.2867384 197.285945 24.1648746 197.024226 24.0358423 196.900636 23.9139785 196.769776 23.7849462 196.646186 23.6630824 196.260876 23.5340502 196.130016 23.4121864 196.006426 23.2831541 195.875566 23.1612903 195.744706 23.0322581 195.490256 22.9032258 195.366666 22.781362 195.104946 22.6523297 194.981356 22.5304659 194.726906 22.5304659 194.726906 22.2795699 194.341596 22.1505376 194.210736 22.0286738 194.087146 21.8996416 193.956286 21.7706093 193.832696 21.6487455 193.570976 21.5197133 193.316526 21.3978495 193.185666 21.2688172 193.062076 21.1469534 192.807626 21.0179211 192.676766 20.8888889 192.545907 20.7670251 192.291457 20.6379928 192.167867 20.516129 191.906147 20.3870968 191.782557 20.265233 191.651697 20.1362007 191.397247 20.0143369 191.142797 19.8853047 191.011937 19.7562724 190.888347 19.6344086 190.757487 19.5053763 190.633897 19.3835125 190.372177 19.2544803 190.248587 19.1326165 189.994137 19.0035842 189.863277 18.8817204 189.608827 18.7526882 189.477967 18.6308244 189.223517 18.5017921 189.092657 18.3727599 188.969067 18.2508961 188.838207 18.1218638 188.838207 17.8709677 189.092657 17.7491039 189.223517 17.6200717 189.354377 17.4910394 189.608827 17.3691756 189.732417 17.2401434 189.994137 17.1182796 190.117727 16.9892473 190.248587 16.8673835 190.372177 16.7383513 190.633897 16.6164875 190.888347 16.4874552 191.011937 16.3584229 191.142797 16.2365591 191.273657 16.1075269 191.528107 15.9856631 191.782557 15.8566308 191.906147 15.734767 192.037007 15.6057348 192.291457 15.483871 192.422317 15.3548387 192.545907 15.2329749 192.807626 15.1039427 192.931216 14.9749104 193.185666 14.8530466 193.316526 14.7240143 193.447386 14.6021505 193.570976 14.4731183 193.832696 14.344086 193.956286 14.2222222 194.210736 14.09319 194.341596 13.9713262 194.472456 13.8422939 194.726906 13.7204301 194.850496 13.5913978 195.104946 13.4695341 195.235806 13.3405018 195.366666 13.218638 195.490256 13.0896057 195.744706 12.9605735 196.006426 12.8387097 196.130016 12.7096774 196.260876 12.5878136 196.384466 12.4587814 196.646186 12.3369176 196.900636 12.2078853 197.024226 12.0860215 197.155085 11.9569892 197.409535 11.827957 197.540395 11.7060932 197.671255 11.5770609 197.925705 11.4551971 198.049295 11.3261649 198.303745 11.2043011 198.434605 11.0752688 198.565465 10.9462366 198.819915 10.8243728 198.943505 10.6953405 199.074365 10.5734767 199.205225 10.4444444 199.459675 10.3225806 199.583265 10.1935484 199.844985 10.0716846 199.968575 9.94265233 200.223025 9.82078853 200.353885 9.69175627 200.484745 9.56272401 200.608335 9.44086022 200.862785 9.31182796 201.117235 9.18996416 201.248095 9.0609319 201.378955 8.9390681 201.502544 8.81003584 201.764264 8.68100358 202.018714 8.55913978 202.142304 8.43010753 202.273164 8.30824373 202.404024 8.17921147 202.658474 8.05734767 202.782064 7.92831541 203.043784 7.80645161 203.167374 7.67741935 203.421824 7.5483871 203.552684 7.4265233 203.552684 7.17562724 203.937994 7.17562724 204.061584 7.04659498 204.192444 6.92473118 204.316034 6.79569892 204.577754 6.67383513 204.701344 6.54480287 204.955794 6.42293907 205.086654 6.29390681 205.341104 6.16487455 205.471964 6.04301075 205.595554 5.91397849 205.857274 5.7921147 205.980863 5.66308244 206.242583 5.53405018 206.366173 5.41218638 206.497033 5.28315412 206.620623 5.16129032 206.882343 5.03225806 207.136793 4.91039427 207.260383 4.78136201 207.391243 4.65949821 207.514833 4.53046595 207.776553 4.40860215 207.900143 4.27956989 208.154593 4.15053763 208.285453 4.02867384 208.416313 3.89964158 208.670763 3.77777778 208.794353 3.64874552 209.056073 3.52688172 209.179663 3.39784946 209.310523 3.27598566 209.434113 3.14695341 209.695833 3.01792115 209.950283 2.89605735 210.081143 2.76702509 210.204733 2.64516129 210.335593 2.51612903 210.590042 2.39426523 210.720902 2.26523297 210.975352 2.13620072 211.098942 2.01433692 211.353392 1.88530466 211.484252 1.76344086 211.615112 1.6344086 211.738702 1.5125448 211.993152 1.38351254 212.254872 1.26164875 212.378462 1.13261649 212.509322 1.00358423 212.632912 0.88172043 212.894632 0.752688172 213.018222 0.630824373 213.272672 0.501792115 213.403532 0.379928315 213.403532 0 187.813138 0 187.558688 0.129032258 187.435098 0.250896057 187.304238 0.379928315 187.173378 0.501792115 186.918928 0.630824373 186.664478 0.752688172 186.533618 0.88172043 186.533618 1.13261649 186.279168 1.13261649 186.024718 1.26164875 185.893858 1.38351254 185.770268 1.5125448 185.639408 1.6344086 185.384958 1.76344086 185.254098 1.88530466 185.130508 2.01433692 184.876058 2.13620072 184.745198 2.26523297 184.614338 2.39426523 184.359888 2.51612903 184.359888 2.76702509 183.974578 2.76702509 183.850988 2.89605735 183.720129 3.01792115 183.596539 3.14695341 183.465679 3.27598566 183.334819 3.39784946 182.956779 3.52688172 182.825919 3.64874552 182.695059 3.77777778 182.571469 3.89964158 182.440609 4.02867384 182.186159 4.15053763 182.062569 4.27956989 181.800849 4.40860215 181.677259 4.53046595 181.546399 4.65949821 181.422809 4.78136201 181.161089 4.91039427 181.037499 5.03225806 180.775779 5.16129032 180.652189 5.28315412 180.521329 5.41218638 180.397739 5.53405018 180.136019 5.66308244 180.012429 5.7921147 179.881569 5.91397849 179.757979 6.04301075 179.496259 6.16487455 179.372669 6.29390681 179.11822 6.42293907 178.98736 6.54480287 178.8565 6.67383513 178.60205 6.79569892 178.47846 6.92473118 178.3476 7.04659498 178.09315 7.17562724 177.96229 7.29749104 177.8387 7.4265233 177.70784 7.5483871 177.58425 7.67741935 177.19894 7.80645161 177.06808 7.92831541 176.94449 8.05734767 176.81363 8.17921147 176.68277 8.30824373 176.55918 8.43010753 176.29746 8.55913978 176.17387 8.68100358 175.91942 8.81003584 175.78856 8.9390681 175.6577 9.0609319 175.40325 9.18996416 175.27966 9.31182796 175.02521 9.44086022 174.894351 9.56272401 174.763491 9.69175627 174.639901 9.82078853 174.385451 9.94265233 174.254591 10.0716846 174.123731 10.1935484 174.000141 10.3225806 173.745691 10.4444444 173.614831 10.5734767 173.360381 10.6953405 173.229521 10.8243728 173.105931 10.9462366 172.844211 11.0752688 172.720621 11.2043011 172.589761 11.3261649 172.335311 11.4551971 172.204451 11.5770609 172.080861 11.7060932 171.826411 11.827957 171.826411 12.0860215 171.564691 12.0860215 171.310241 12.2078853 171.186651 12.3369176 171.055791 12.4587814 170.924931 12.5878136 170.801341 12.7096774 170.546891 12.8387097 170.416032 12.9605735 170.161582 13.0896057 169.907132 13.218638 169.776272 13.3405018 169.645412 13.4695341 169.136512 13.5913978 168.882062 13.7204301 168.627612 13.8422939 168.242302 13.9713262 167.987852 14.09319 167.471682 14.2222222 164.912643 14.344086 164.912643 0 145.341807 0"></polygon>
                    <polygon id="Path" points="289.527685 35.4910394 289.527685 35.6200717 309.86914 35.6200717 309.86914 35.4910394 309.86914 0.129032258 289.527685 0.129032258"></polygon>
                    <polygon id="Path" points="289.396825 35.4910394 289.527685 35.4910394 289.527685 0.129032258 309.86914 0.129032258 309.86914 35.4910394 310 35.4910394 310 0 289.396825 0"></polygon>
                    <polygon id="Path" points="72.4164536 35.7419355 92.1181492 35.7419355 92.1181492 13.7060932 115.789264 35.7419355 136.385169 35.7419355 136.385169 0.00716845878 116.668934 0.00716845878 116.668934 17.6057348 97.8759879 0.00716845878 72.4164536 0"></polygon>
                    <rect id="Rectangle" fill-rule="nonzero" x="289.396825" y="0" width="20.5959053" height="35.6200717"></rect>
                    <path d="M145.341807,0 L164.919913,0 C164.919913,0 164.919913,14.3512545 164.919913,14.3512545 C166.301212,14.2867384 166.933702,14.5304659 168.627612,13.8494624 L175.66497,9.06810036 L187.798598,0.00716845878 L213.839732,0.00716845878 C213.839732,0.00716845878 188.591027,17.8781362 188.591027,17.8781362 L213.788842,36 L187.696818,36 C187.696818,36 171.259351,23.7275986 171.259351,23.7275986 C169.209212,22.09319 168.249572,21.6415771 164.927183,21.3763441 L164.927183,35.7419355 C164.927183,35.7419355 145.349077,35.7419355 145.349077,35.7419355 L145.349077,0 L145.341807,0 Z" id="Path"></path>
                    <path d="M238.063366,10.8243728 C238.070636,10.2939068 238.412326,10.0573477 239.212026,10.0716846 L259.168171,10.0716846 C260.055111,10.0286738 260.491311,10.3297491 260.447691,11.0752688 L260.578551,21.8996416 L237.932506,21.8996416 C237.932506,21.8996416 238.063366,10.8243728 238.063366,10.8243728 Z M217.336601,8.68100358 L217.336601,35.4910394 C217.336601,35.4910394 217.467461,35.6129032 217.467461,35.6129032 L237.808916,35.6129032 C237.808916,35.6129032 237.939776,35.6129032 237.939776,35.6129032 L237.939776,28.8172043 L260.585821,28.8172043 L260.585821,35.6129032 C260.585821,35.6129032 280.803687,35.6129032 280.803687,35.6129032 L280.934547,35.4910394 L280.934547,8.6953405 C280.505617,3.41935484 276.841537,0.286738351 271.083699,0 L227.201989,0 C220.61537,0 217.816421,3.08243728 217.351141,8.68817204 L217.336601,8.68100358 Z" id="Shape"></path>
                </g>
            </g>
        </g>
    </g>
</svg>