
<svg width="42px" height="42px" viewBox="0 0 42 42" version="1.1" xmlns="http://www.w3.org/2000/svg" xmlns:xlink="http://www.w3.org/1999/xlink">
    <g id="Page-1" stroke="none" stroke-width="1" fill="none" fill-rule="evenodd">
        <g id="2560" transform="translate(-1985.000000, -17.000000)" fill="#FFFFFF" fill-rule="nonzero">
            <path d="M2006.00009,17.0004667 C1994.47426,17.0004667 1985.09363,26.381817 1985.00077,37.8609272 C1984.95337,43.4611761 1987.1007,48.7804791 1991.06724,52.7473221 C1994.98637,56.7615805 2000.25981,58.9547313 2005.85963,59 L2006,59 C2017.52582,59 2026.90645,49.6186497 2026.99931,38.1395395 C2027.09228,26.5670919 2017.71388,17.0928708 2006,17 L2006.00009,17.0004667 Z M2015.96202,44.990003 L2015.00568,45.9022386 C2013.42732,47.4077924 2012.08804,47.7730516 2009.98484,47.1797335 C2007.78447,46.5418983 2005.8251,45.4016037 2004.05643,44.0332502 C2001.52172,42.0715785 1998.79651,39.5184133 1997.02774,36.8726561 C1995.25888,34.1359491 1994.68545,31.2619505 1997.17157,28.8905938 L1997.22013,28.8442705 L1998.1279,27.9783764 C1998.79658,27.3405412 1999.89676,27.3405412 2000.61402,27.9783764 L2003.43449,30.6687419 C2004.10317,31.3065771 2004.10317,32.356013 2003.43449,33.0401898 L2001.76088,34.6366022 L2001.80944,34.6829256 C2003.67356,37.3732911 2006.11301,39.7002219 2008.93329,41.4781692 L2008.98185,41.5244925 L2010.65546,39.9280801 C2011.32414,39.2902449 2012.42433,39.2902449 2013.14159,39.9280801 L2015.96205,42.6184456 C2016.67932,43.3026224 2016.67932,44.3520583 2015.96205,44.9898935 L2015.96202,44.990003 Z" id="Shape"></path>
        </g>
    </g>
</svg>